<svg width="32" height="34" viewBox="0 0 32 34" fill="none" xmlns="http://www.w3.org/2000/svg">
<path id="Path" d="M12.0886 15.5351L17.6121 21.3636C18.2109 21.9955 19.2955 22.0857 20.5037 21.4903C23.5786 20.2155 24.6017 19.9047 25.1858 20.521L31.535 27.2209C32.2855 28.0129 32.0852 29.3321 31.246 30.2177C26.888 34.8164 19.8047 34.8164 15.4467 30.2177L3.58608 17.7019C-0.750048 13.1263 -0.750048 5.72376 3.58608 1.14813C4.44306 0.243816 5.75912 0.0213093 6.53792 0.843127L12.8872 7.54306C13.4375 8.12377 13.1424 9.2054 11.9409 12.4281C11.3823 13.6861 11.4718 14.8842 12.0886 15.5351Z" fill="#5CB3CF"/>
</svg>
