<svg width="325" height="247" viewBox="0 0 325 247" fill="none" xmlns="http://www.w3.org/2000/svg">
<path d="M251.375 112.202L158.169 53.3596L96.031 123.5L104.975 215.294L207.782 211.391L251.375 112.202Z" fill="#CDD9F9" fill-opacity="0.4"/>
<path d="M267.744 111.118L179.168 140.088" stroke="#D9D9D9"/>
<path d="M130.587 3.10548V11.6367H129.457V3.10548H130.587ZM134.162 6.94337V7.86915H130.341V6.94337H134.162ZM134.742 3.10548V4.03126H130.341V3.10548H134.742ZM137.103 2.63673V11.6367H136.013V2.63673H137.103ZM142.722 10.1719V5.29688H143.812V11.6367H142.775L142.722 10.1719ZM142.927 8.83595L143.378 8.82423C143.378 9.2461 143.334 9.63673 143.244 9.9961C143.158 10.3516 143.017 10.6602 142.822 10.9219C142.626 11.1836 142.371 11.3887 142.054 11.5371C141.738 11.6816 141.353 11.7539 140.9 11.7539C140.591 11.7539 140.308 11.709 140.05 11.6191C139.796 11.5293 139.578 11.3906 139.394 11.2031C139.21 11.0156 139.068 10.7715 138.966 10.4707C138.869 10.1699 138.82 9.8086 138.82 9.38673V5.29688H139.904V9.39845C139.904 9.6836 139.935 9.91993 139.998 10.1074C140.064 10.291 140.152 10.4375 140.261 10.5469C140.375 10.6524 140.5 10.7266 140.636 10.7695C140.777 10.8125 140.921 10.834 141.07 10.834C141.531 10.834 141.896 10.7461 142.166 10.5703C142.435 10.3906 142.628 10.1504 142.746 9.84962C142.867 9.54493 142.927 9.20704 142.927 8.83595ZM148.095 11.7539C147.654 11.7539 147.253 11.6797 146.894 11.5313C146.539 11.3789 146.232 11.166 145.974 10.8926C145.72 10.6191 145.525 10.2949 145.388 9.91993C145.251 9.54493 145.183 9.13477 145.183 8.68946V8.44337C145.183 7.92774 145.259 7.46876 145.412 7.06641C145.564 6.66016 145.771 6.31641 146.033 6.03516C146.294 5.75391 146.591 5.54102 146.923 5.39649C147.255 5.25196 147.599 5.1797 147.955 5.1797C148.408 5.1797 148.798 5.25782 149.126 5.41407C149.459 5.57032 149.73 5.78907 149.941 6.07032C150.152 6.34766 150.308 6.67579 150.41 7.0547C150.511 7.4297 150.562 7.83985 150.562 8.28516V8.77149H145.828V7.88673H149.478V7.8047C149.462 7.52345 149.404 7.25001 149.302 6.98438C149.205 6.71876 149.048 6.50001 148.834 6.32813C148.619 6.15626 148.326 6.07032 147.955 6.07032C147.709 6.07032 147.482 6.12305 147.275 6.22852C147.068 6.33009 146.89 6.48243 146.742 6.68555C146.593 6.88868 146.478 7.13673 146.396 7.4297C146.314 7.72266 146.273 8.06055 146.273 8.44337V8.68946C146.273 8.99024 146.314 9.27345 146.396 9.53907C146.482 9.80079 146.605 10.0313 146.765 10.2305C146.929 10.4297 147.126 10.5859 147.357 10.6992C147.591 10.8125 147.857 10.8691 148.154 10.8691C148.537 10.8691 148.861 10.791 149.126 10.6348C149.392 10.4785 149.625 10.2695 149.824 10.0078L150.48 10.5293C150.343 10.7363 150.169 10.9336 149.959 11.1211C149.748 11.3086 149.488 11.4609 149.179 11.5781C148.875 11.6953 148.513 11.7539 148.095 11.7539ZM152.912 6.6504V11.6367H151.828V5.29688H152.853L152.912 6.6504ZM152.654 8.22657L152.203 8.20899C152.207 7.7754 152.271 7.37501 152.396 7.00782C152.521 6.63673 152.697 6.31446 152.923 6.04102C153.15 5.76759 153.419 5.55665 153.732 5.40821C154.048 5.25587 154.398 5.1797 154.781 5.1797C155.093 5.1797 155.375 5.22266 155.625 5.3086C155.875 5.39063 156.087 5.52345 156.263 5.70704C156.443 5.89063 156.58 6.12891 156.673 6.42188C156.767 6.71095 156.814 7.06446 156.814 7.48243V11.6367H155.724V7.47071C155.724 7.13868 155.675 6.87305 155.578 6.67384C155.48 6.47071 155.337 6.32423 155.15 6.23438C154.962 6.14063 154.732 6.09376 154.459 6.09376C154.189 6.09376 153.943 6.1504 153.72 6.26368C153.501 6.37696 153.312 6.53321 153.152 6.73243C152.996 6.93165 152.873 7.16016 152.783 7.41798C152.697 7.67188 152.654 7.94141 152.654 8.22657ZM160.998 10.8633C161.255 10.8633 161.494 10.8106 161.712 10.7051C161.931 10.5996 162.111 10.4551 162.251 10.2715C162.392 10.084 162.472 9.8711 162.492 9.63282H163.523C163.503 10.0078 163.376 10.3574 163.142 10.6816C162.912 11.002 162.609 11.2617 162.234 11.4609C161.859 11.6563 161.447 11.7539 160.998 11.7539C160.521 11.7539 160.105 11.6699 159.75 11.502C159.398 11.334 159.105 11.1035 158.871 10.8106C158.64 10.5176 158.466 10.1816 158.349 9.80274C158.236 9.41993 158.179 9.01563 158.179 8.58985V8.34376C158.179 7.91798 158.236 7.51563 158.349 7.13673C158.466 6.75391 158.64 6.41602 158.871 6.12305C159.105 5.83009 159.398 5.59962 159.75 5.43165C160.105 5.26368 160.521 5.1797 160.998 5.1797C161.494 5.1797 161.927 5.28126 162.298 5.48438C162.669 5.6836 162.96 5.95704 163.171 6.3047C163.386 6.64845 163.503 7.03907 163.523 7.47657H162.492C162.472 7.21485 162.398 6.97852 162.269 6.76759C162.144 6.55665 161.972 6.38868 161.753 6.26368C161.539 6.13477 161.287 6.07032 160.998 6.07032C160.666 6.07032 160.386 6.13673 160.16 6.26954C159.937 6.39845 159.759 6.57423 159.626 6.79688C159.498 7.01563 159.404 7.25977 159.345 7.5293C159.291 7.79493 159.263 8.06641 159.263 8.34376V8.58985C159.263 8.8672 159.291 9.14063 159.345 9.41016C159.4 9.6797 159.492 9.92384 159.621 10.1426C159.753 10.3613 159.931 10.5371 160.154 10.6699C160.38 10.7988 160.662 10.8633 160.998 10.8633ZM166.523 10.9805L168.287 5.29688H169.447L166.904 12.6152C166.845 12.7715 166.767 12.9395 166.669 13.1191C166.576 13.3027 166.455 13.4766 166.306 13.6406C166.158 13.8047 165.978 13.9375 165.767 14.0391C165.56 14.1445 165.312 14.1973 165.023 14.1973C164.937 14.1973 164.828 14.1856 164.695 14.1621C164.562 14.1387 164.468 14.1191 164.414 14.1035L164.408 13.2246C164.439 13.2285 164.488 13.2324 164.554 13.2363C164.625 13.2441 164.673 13.2481 164.701 13.2481C164.947 13.2481 165.156 13.2149 165.328 13.1484C165.5 13.0859 165.644 12.9785 165.761 12.8262C165.882 12.6777 165.986 12.4727 166.072 12.2109L166.523 10.9805ZM165.228 5.29688L166.875 10.2188L167.156 11.3613L166.376 11.7598L164.044 5.29688H165.228Z" fill="black"/>
<path d="M163.354 24.1145H164.965C164.922 24.6848 164.764 25.1907 164.49 25.6321C164.217 26.0696 163.836 26.4133 163.348 26.6633C162.86 26.9133 162.268 27.0383 161.573 27.0383C161.037 27.0383 160.555 26.9446 160.125 26.7571C159.699 26.5657 159.334 26.2942 159.03 25.9426C158.729 25.5872 158.498 25.1614 158.338 24.6653C158.178 24.1653 158.098 23.6047 158.098 22.9837V22.3333C158.098 21.7122 158.18 21.1516 158.344 20.6516C158.508 20.1516 158.742 19.7258 159.047 19.3743C159.356 19.0188 159.725 18.7454 160.155 18.554C160.588 18.3626 161.073 18.2669 161.608 18.2669C162.303 18.2669 162.891 18.3958 163.371 18.6536C163.852 18.9075 164.225 19.2571 164.49 19.7024C164.756 20.1477 164.916 20.6594 164.971 21.2376H163.36C163.328 20.8782 163.25 20.5735 163.125 20.3235C163.004 20.0735 162.821 19.884 162.574 19.7551C162.332 19.6223 162.01 19.5559 161.608 19.5559C161.295 19.5559 161.02 19.6145 160.781 19.7317C160.547 19.8489 160.352 20.0247 160.196 20.259C160.039 20.4895 159.922 20.7786 159.844 21.1262C159.766 21.47 159.727 21.8684 159.727 22.3215V22.9837C159.727 23.4172 159.762 23.8059 159.832 24.1497C159.903 24.4934 160.012 24.7844 160.16 25.0227C160.309 25.261 160.5 25.4426 160.735 25.5676C160.969 25.6926 161.248 25.7551 161.573 25.7551C161.967 25.7551 162.287 25.6926 162.533 25.5676C162.783 25.4426 162.973 25.259 163.102 25.0169C163.235 24.7747 163.319 24.4739 163.354 24.1145ZM171.791 25.7024V26.9212H166.014V25.8782L168.785 22.884C169.074 22.5559 169.303 22.2708 169.471 22.0286C169.639 21.7864 169.758 21.5676 169.828 21.3723C169.903 21.1731 169.94 20.9837 169.94 20.804C169.94 20.5422 169.893 20.3137 169.799 20.1184C169.705 19.9192 169.569 19.7649 169.389 19.6555C169.213 19.5462 168.996 19.4915 168.739 19.4915C168.453 19.4915 168.209 19.5579 168.006 19.6907C167.807 19.8196 167.655 19.9993 167.549 20.2297C167.448 20.4602 167.397 20.7239 167.397 21.0208H165.844C165.844 20.5169 165.961 20.0579 166.196 19.6438C166.43 19.2258 166.766 18.8919 167.203 18.6419C167.641 18.3919 168.16 18.2669 168.762 18.2669C169.348 18.2669 169.844 18.3645 170.25 18.5598C170.656 18.7512 170.965 19.0247 171.176 19.3801C171.387 19.7356 171.492 20.1594 171.492 20.6516C171.492 20.9251 171.448 21.1946 171.358 21.4602C171.268 21.7258 171.141 21.9895 170.977 22.2512C170.817 22.509 170.625 22.7708 170.403 23.0364C170.18 23.302 169.932 23.5735 169.658 23.8508L167.994 25.7024H171.791Z" fill="black"/>
<path d="M270.345 92.3065H271.956C271.913 92.8769 271.755 93.3827 271.481 93.8241C271.208 94.2616 270.827 94.6054 270.339 94.8554C269.851 95.1054 269.259 95.2304 268.563 95.2304C268.028 95.2304 267.546 95.1366 267.116 94.9491C266.69 94.7577 266.325 94.4862 266.02 94.1347C265.72 93.7792 265.489 93.3534 265.329 92.8573C265.169 92.3573 265.089 91.7968 265.089 91.1757V90.5253C265.089 89.9042 265.171 89.3437 265.335 88.8437C265.499 88.3437 265.733 87.9179 266.038 87.5663C266.347 87.2108 266.716 86.9374 267.145 86.746C267.579 86.5546 268.063 86.4589 268.599 86.4589C269.294 86.4589 269.882 86.5878 270.362 86.8456C270.843 87.0995 271.216 87.4491 271.481 87.8944C271.747 88.3397 271.907 88.8515 271.962 89.4296H270.351C270.319 89.0702 270.241 88.7655 270.116 88.5155C269.995 88.2655 269.811 88.0761 269.565 87.9472C269.323 87.8144 269.001 87.7479 268.599 87.7479C268.286 87.7479 268.011 87.8065 267.772 87.9237C267.538 88.0409 267.343 88.2167 267.186 88.4511C267.03 88.6815 266.913 88.9706 266.835 89.3183C266.757 89.662 266.718 90.0604 266.718 90.5136V91.1757C266.718 91.6093 266.753 91.9979 266.823 92.3417C266.894 92.6854 267.003 92.9765 267.151 93.2147C267.3 93.453 267.491 93.6347 267.726 93.7597C267.96 93.8847 268.239 93.9472 268.563 93.9472C268.958 93.9472 269.278 93.8847 269.524 93.7597C269.774 93.6347 269.964 93.4511 270.093 93.2089C270.226 92.9667 270.31 92.6659 270.345 92.3065ZM278.782 93.8944V95.1132H273.005V94.0702L275.776 91.0761C276.065 90.7479 276.294 90.4628 276.462 90.2206C276.63 89.9784 276.749 89.7597 276.819 89.5644C276.894 89.3651 276.931 89.1757 276.931 88.996C276.931 88.7343 276.884 88.5058 276.79 88.3104C276.696 88.1112 276.56 87.9569 276.38 87.8476C276.204 87.7382 275.987 87.6835 275.729 87.6835C275.444 87.6835 275.2 87.7499 274.997 87.8827C274.798 88.0116 274.645 88.1913 274.54 88.4218C274.438 88.6522 274.388 88.9159 274.388 89.2128H272.835C272.835 88.7089 272.952 88.2499 273.186 87.8358C273.421 87.4179 273.757 87.0839 274.194 86.8339C274.632 86.5839 275.151 86.4589 275.753 86.4589C276.339 86.4589 276.835 86.5565 277.241 86.7519C277.647 86.9433 277.956 87.2167 278.167 87.5722C278.378 87.9276 278.483 88.3515 278.483 88.8437C278.483 89.1171 278.438 89.3866 278.349 89.6522C278.259 89.9179 278.132 90.1815 277.968 90.4433C277.808 90.7011 277.616 90.9628 277.394 91.2284C277.171 91.494 276.923 91.7655 276.649 92.0429L274.985 93.8944H278.782Z" fill="black"/>
<path d="M76.3501 212.231H77.9615C77.9185 212.801 77.7603 213.307 77.4868 213.748C77.2134 214.186 76.8326 214.529 76.3443 214.779C75.856 215.029 75.2642 215.154 74.5689 215.154C74.0337 215.154 73.5513 215.061 73.1216 214.873C72.6958 214.682 72.3306 214.41 72.0259 214.059C71.7251 213.703 71.4947 213.277 71.3345 212.781C71.1743 212.281 71.0943 211.721 71.0943 211.1V210.449C71.0943 209.828 71.1763 209.268 71.3404 208.768C71.5044 208.268 71.7388 207.842 72.0435 207.49C72.3521 207.135 72.7212 206.861 73.1509 206.67C73.5845 206.479 74.0689 206.383 74.604 206.383C75.2993 206.383 75.8872 206.512 76.3677 206.77C76.8482 207.023 77.2212 207.373 77.4868 207.818C77.7525 208.264 77.9126 208.775 77.9673 209.354H76.356C76.3247 208.994 76.2466 208.689 76.1216 208.439C76.0005 208.189 75.8169 208 75.5708 207.871C75.3286 207.738 75.0064 207.672 74.604 207.672C74.2915 207.672 74.0161 207.731 73.7779 207.848C73.5435 207.965 73.3482 208.141 73.1919 208.375C73.0357 208.606 72.9185 208.895 72.8404 209.242C72.7622 209.586 72.7232 209.984 72.7232 210.438V211.1C72.7232 211.533 72.7583 211.922 72.8286 212.266C72.899 212.609 73.0083 212.9 73.1568 213.139C73.3052 213.377 73.4966 213.559 73.731 213.684C73.9654 213.809 74.2447 213.871 74.5689 213.871C74.9634 213.871 75.2837 213.809 75.5298 213.684C75.7798 213.559 75.9693 213.375 76.0982 213.133C76.231 212.891 76.315 212.59 76.3501 212.231ZM84.7876 213.818V215.037H79.0103V213.994L81.7818 211C82.0708 210.672 82.2993 210.387 82.4673 210.145C82.6353 209.902 82.7544 209.684 82.8247 209.488C82.899 209.289 82.9361 209.1 82.9361 208.92C82.9361 208.658 82.8892 208.43 82.7954 208.234C82.7017 208.035 82.565 207.881 82.3853 207.772C82.2095 207.662 81.9927 207.607 81.7349 207.607C81.4497 207.607 81.2056 207.674 81.0025 207.807C80.8033 207.936 80.6509 208.115 80.5454 208.346C80.4439 208.576 80.3931 208.84 80.3931 209.137H78.8404C78.8404 208.633 78.9576 208.174 79.1919 207.76C79.4263 207.342 79.7622 207.008 80.1997 206.758C80.6372 206.508 81.1568 206.383 81.7583 206.383C82.3443 206.383 82.8404 206.481 83.2466 206.676C83.6529 206.867 83.9615 207.141 84.1724 207.496C84.3833 207.852 84.4888 208.275 84.4888 208.768C84.4888 209.041 84.4439 209.311 84.354 209.576C84.2642 209.842 84.1372 210.106 83.9732 210.367C83.813 210.625 83.6216 210.887 83.399 211.152C83.1763 211.418 82.9283 211.689 82.6548 211.967L80.9908 213.818H84.7876Z" fill="black"/>
<path d="M59.343 91.3104H57.1634L57.1516 90.1737H59.0208C59.3411 90.1737 59.6087 90.1288 59.8235 90.039C60.0384 89.9491 60.2005 89.8183 60.3098 89.6464C60.4231 89.4745 60.4798 89.2655 60.4798 89.0194C60.4798 88.746 60.427 88.5233 60.3216 88.3515C60.22 88.1796 60.0598 88.0546 59.8411 87.9765C59.6223 87.8944 59.345 87.8534 59.0091 87.8534H57.6848V95.1132H56.0735V86.5819H59.0091C59.4934 86.5819 59.9251 86.6288 60.304 86.7226C60.6868 86.8124 61.011 86.953 61.2766 87.1444C61.5423 87.3358 61.7434 87.5761 61.8802 87.8651C62.0208 88.1542 62.0911 88.4979 62.0911 88.8964C62.0911 89.2479 62.0091 89.5722 61.845 89.869C61.6848 90.162 61.4368 90.4003 61.1009 90.5839C60.7688 90.7675 60.347 90.8729 59.8352 90.9003L59.343 91.3104ZM59.2727 95.1132H56.6888L57.3626 93.8476H59.2727C59.593 93.8476 59.8567 93.7948 60.0638 93.6894C60.2747 93.5839 60.4309 93.4394 60.5325 93.2558C60.638 93.0683 60.6907 92.8534 60.6907 92.6112C60.6907 92.3456 60.6438 92.1151 60.5501 91.9198C60.4602 91.7245 60.3157 91.5741 60.1165 91.4687C59.9212 91.3632 59.6634 91.3104 59.343 91.3104H57.6673L57.679 90.1737H59.8118L60.1809 90.6132C60.6731 90.6171 61.0735 90.7147 61.3821 90.9062C61.6946 91.0976 61.9251 91.3437 62.0735 91.6444C62.222 91.9452 62.2962 92.2694 62.2962 92.6171C62.2962 93.164 62.177 93.6229 61.9388 93.994C61.7044 94.3651 61.3606 94.6444 60.9075 94.8319C60.4583 95.0194 59.9134 95.1132 59.2727 95.1132ZM69.2688 93.8944V95.1132H63.4915V94.0702L66.263 91.0761C66.552 90.7479 66.7805 90.4628 66.9485 90.2206C67.1165 89.9784 67.2356 89.7597 67.3059 89.5644C67.3802 89.3651 67.4173 89.1757 67.4173 88.996C67.4173 88.7343 67.3704 88.5058 67.2766 88.3104C67.1829 88.1112 67.0462 87.9569 66.8665 87.8476C66.6907 87.7382 66.4739 87.6835 66.2161 87.6835C65.9309 87.6835 65.6868 87.7499 65.4837 87.8827C65.2845 88.0116 65.1321 88.1913 65.0266 88.4218C64.9251 88.6522 64.8743 88.9159 64.8743 89.2128H63.3216C63.3216 88.7089 63.4388 88.2499 63.6731 87.8358C63.9075 87.4179 64.2434 87.0839 64.6809 86.8339C65.1184 86.5839 65.638 86.4589 66.2395 86.4589C66.8255 86.4589 67.3216 86.5565 67.7278 86.7519C68.1341 86.9433 68.4427 87.2167 68.6536 87.5722C68.8645 87.9276 68.97 88.3515 68.97 88.8437C68.97 89.1171 68.9251 89.3866 68.8352 89.6522C68.7454 89.9179 68.6184 90.1815 68.4544 90.4433C68.2942 90.7011 68.1028 90.9628 67.8802 91.2284C67.6575 91.494 67.4095 91.7655 67.136 92.0429L65.472 93.8944H69.2688Z" fill="black"/>
<path d="M270.345 213.406H271.956C271.913 213.977 271.755 214.482 271.481 214.924C271.208 215.361 270.827 215.705 270.339 215.955C269.851 216.205 269.259 216.33 268.563 216.33C268.028 216.33 267.546 216.236 267.116 216.049C266.69 215.857 266.325 215.586 266.02 215.234C265.72 214.879 265.489 214.453 265.329 213.957C265.169 213.457 265.089 212.896 265.089 212.275V211.625C265.089 211.004 265.171 210.443 265.335 209.943C265.499 209.443 265.733 209.018 266.038 208.666C266.347 208.31 266.716 208.037 267.145 207.846C267.579 207.654 268.063 207.559 268.599 207.559C269.294 207.559 269.882 207.687 270.362 207.945C270.843 208.199 271.216 208.549 271.481 208.994C271.747 209.439 271.907 209.951 271.962 210.529H270.351C270.319 210.17 270.241 209.865 270.116 209.615C269.995 209.365 269.811 209.176 269.565 209.047C269.323 208.914 269.001 208.848 268.599 208.848C268.286 208.848 268.011 208.906 267.772 209.023C267.538 209.141 267.343 209.316 267.186 209.551C267.03 209.781 266.913 210.07 266.835 210.418C266.757 210.762 266.718 211.16 266.718 211.613V212.275C266.718 212.709 266.753 213.098 266.823 213.441C266.894 213.785 267.003 214.076 267.151 214.314C267.3 214.553 267.491 214.734 267.726 214.859C267.96 214.984 268.239 215.047 268.563 215.047C268.958 215.047 269.278 214.984 269.524 214.859C269.774 214.734 269.964 214.551 270.093 214.309C270.226 214.066 270.31 213.766 270.345 213.406ZM276.989 207.658V216.213H275.436V209.469L273.38 210.148V208.894L276.813 207.658H276.989Z" fill="black"/>
<path d="M268.282 79.4524L270.796 72.216H272.02L268.862 80.7473H267.989L268.282 79.4524ZM265.933 72.216L268.423 79.4524L268.733 80.7473H267.86L264.708 72.216H265.933ZM272.448 77.6477V77.5129C272.448 77.0559 272.515 76.6321 272.647 76.2414C272.78 75.8469 272.972 75.5051 273.222 75.216C273.472 74.9231 273.774 74.6965 274.13 74.5364C274.485 74.3723 274.884 74.2903 275.325 74.2903C275.77 74.2903 276.171 74.3723 276.526 74.5364C276.886 74.6965 277.19 74.9231 277.44 75.216C277.694 75.5051 277.888 75.8469 278.02 76.2414C278.153 76.6321 278.22 77.0559 278.22 77.5129V77.6477C278.22 78.1047 278.153 78.5285 278.02 78.9192C277.888 79.3098 277.694 79.6516 277.44 79.9446C277.19 80.2336 276.888 80.4602 276.532 80.6243C276.181 80.7844 275.782 80.8645 275.337 80.8645C274.892 80.8645 274.491 80.7844 274.136 80.6243C273.78 80.4602 273.476 80.2336 273.222 79.9446C272.972 79.6516 272.78 79.3098 272.647 78.9192C272.515 78.5285 272.448 78.1047 272.448 77.6477ZM273.532 77.5129V77.6477C273.532 77.9641 273.569 78.2629 273.644 78.5442C273.718 78.8215 273.829 79.0676 273.978 79.2825C274.13 79.4973 274.319 79.6672 274.546 79.7922C274.772 79.9133 275.036 79.9739 275.337 79.9739C275.634 79.9739 275.894 79.9133 276.116 79.7922C276.343 79.6672 276.53 79.4973 276.679 79.2825C276.827 79.0676 276.938 78.8215 277.013 78.5442C277.091 78.2629 277.13 77.9641 277.13 77.6477V77.5129C277.13 77.2004 277.091 76.9055 277.013 76.6282C276.938 76.3469 276.825 76.0989 276.673 75.884C276.524 75.6653 276.337 75.4934 276.11 75.3684C275.888 75.2434 275.626 75.1809 275.325 75.1809C275.028 75.1809 274.767 75.2434 274.54 75.3684C274.317 75.4934 274.13 75.6653 273.978 75.884C273.829 76.0989 273.718 76.3469 273.644 76.6282C273.569 76.9055 273.532 77.2004 273.532 77.5129ZM282.116 79.9739C282.374 79.9739 282.612 79.9211 282.831 79.8157C283.05 79.7102 283.229 79.5657 283.37 79.3821C283.511 79.1946 283.591 78.9817 283.61 78.7434H284.642C284.622 79.1184 284.495 79.468 284.261 79.7922C284.03 80.1125 283.728 80.3723 283.353 80.5715C282.978 80.7668 282.565 80.8645 282.116 80.8645C281.64 80.8645 281.224 80.7805 280.868 80.6125C280.517 80.4446 280.224 80.2141 279.989 79.9211C279.759 79.6282 279.585 79.2922 279.468 78.9133C279.354 78.5305 279.298 78.1262 279.298 77.7004V77.4543C279.298 77.0285 279.354 76.6262 279.468 76.2473C279.585 75.8645 279.759 75.5266 279.989 75.2336C280.224 74.9407 280.517 74.7102 280.868 74.5422C281.224 74.3743 281.64 74.2903 282.116 74.2903C282.612 74.2903 283.046 74.3918 283.417 74.595C283.788 74.7942 284.079 75.0676 284.29 75.4153C284.505 75.759 284.622 76.1496 284.642 76.5871H283.61C283.591 76.3254 283.517 76.0891 283.388 75.8782C283.263 75.6672 283.091 75.4993 282.872 75.3743C282.657 75.2453 282.405 75.1809 282.116 75.1809C281.784 75.1809 281.505 75.2473 281.278 75.3801C281.056 75.509 280.878 75.6848 280.745 75.9075C280.616 76.1262 280.522 76.3703 280.464 76.6399C280.409 76.9055 280.382 77.177 280.382 77.4543V77.7004C280.382 77.9778 280.409 78.2512 280.464 78.5207C280.519 78.7903 280.61 79.0344 280.739 79.2532C280.872 79.4719 281.05 79.6477 281.272 79.7805C281.499 79.9094 281.78 79.9739 282.116 79.9739ZM289.599 79.6633V76.3996C289.599 76.1496 289.548 75.9328 289.446 75.7493C289.349 75.5618 289.2 75.4172 289.001 75.3157C288.802 75.2141 288.556 75.1633 288.263 75.1633C287.989 75.1633 287.749 75.2102 287.542 75.3039C287.339 75.3977 287.179 75.5207 287.061 75.6731C286.948 75.8254 286.892 75.9895 286.892 76.1653H285.808C285.808 75.9387 285.866 75.7141 285.983 75.4914C286.101 75.2688 286.269 75.0676 286.487 74.8879C286.71 74.7043 286.976 74.5598 287.284 74.4543C287.597 74.345 287.944 74.2903 288.327 74.2903C288.788 74.2903 289.194 74.3684 289.546 74.5246C289.901 74.6809 290.179 74.9172 290.378 75.2336C290.581 75.5461 290.683 75.9387 290.683 76.4114V79.3645C290.683 79.5754 290.7 79.8 290.735 80.0383C290.774 80.2766 290.831 80.4817 290.905 80.6535V80.7473H289.774C289.72 80.6223 289.677 80.4563 289.645 80.2493C289.614 80.0383 289.599 79.843 289.599 79.6633ZM289.786 76.9035L289.798 77.6653H288.702C288.394 77.6653 288.118 77.6907 287.876 77.7414C287.634 77.7883 287.431 77.8606 287.267 77.9582C287.103 78.0559 286.978 78.1789 286.892 78.3274C286.806 78.4719 286.763 78.6418 286.763 78.8371C286.763 79.0364 286.808 79.218 286.897 79.3821C286.987 79.5461 287.122 79.677 287.302 79.7746C287.485 79.8684 287.71 79.9153 287.976 79.9153C288.308 79.9153 288.601 79.845 288.854 79.7043C289.108 79.5637 289.31 79.3918 289.458 79.1887C289.61 78.9856 289.692 78.7883 289.704 78.5969L290.167 79.1184C290.14 79.2825 290.065 79.4641 289.944 79.6633C289.823 79.8625 289.661 80.0539 289.458 80.2375C289.259 80.4172 289.02 80.5676 288.743 80.6887C288.47 80.8059 288.161 80.8645 287.817 80.8645C287.388 80.8645 287.011 80.7805 286.686 80.6125C286.366 80.4446 286.116 80.22 285.936 79.9387C285.761 79.6535 285.673 79.3352 285.673 78.9836C285.673 78.6438 285.739 78.345 285.872 78.0871C286.005 77.8254 286.196 77.6086 286.446 77.4368C286.696 77.261 286.997 77.1282 287.349 77.0383C287.7 76.9485 288.093 76.9035 288.526 76.9035H289.786ZM292.382 71.7473H293.472V79.5168L293.378 80.7473H292.382V71.7473ZM297.755 77.5246V77.6477C297.755 78.1086 297.7 78.5364 297.591 78.9309C297.481 79.3215 297.321 79.6614 297.11 79.9504C296.899 80.2395 296.642 80.4641 296.337 80.6243C296.032 80.7844 295.683 80.8645 295.288 80.8645C294.886 80.8645 294.532 80.7961 294.228 80.6594C293.927 80.5188 293.673 80.3176 293.466 80.0559C293.259 79.7942 293.093 79.4778 292.968 79.1067C292.847 78.7356 292.763 78.3176 292.716 77.8528V77.3137C292.763 76.845 292.847 76.425 292.968 76.0539C293.093 75.6828 293.259 75.3664 293.466 75.1047C293.673 74.8391 293.927 74.6379 294.228 74.5012C294.528 74.3606 294.878 74.2903 295.276 74.2903C295.675 74.2903 296.028 74.3684 296.337 74.5246C296.645 74.677 296.903 74.8957 297.11 75.1809C297.321 75.466 297.481 75.8078 297.591 76.2063C297.7 76.6008 297.755 77.0403 297.755 77.5246ZM296.665 77.6477V77.5246C296.665 77.2082 296.636 76.9114 296.577 76.634C296.519 76.3528 296.425 76.1067 296.296 75.8957C296.167 75.6809 295.997 75.5129 295.786 75.3918C295.575 75.2668 295.315 75.2043 295.007 75.2043C294.733 75.2043 294.495 75.2512 294.292 75.345C294.093 75.4387 293.923 75.5657 293.782 75.7258C293.642 75.8821 293.526 76.0618 293.436 76.2649C293.351 76.4641 293.286 76.6711 293.243 76.886V78.2981C293.306 78.5715 293.407 78.8352 293.548 79.0891C293.692 79.3391 293.884 79.5442 294.122 79.7043C294.364 79.8645 294.663 79.9446 295.019 79.9446C295.311 79.9446 295.561 79.886 295.769 79.7688C295.979 79.6477 296.149 79.4817 296.278 79.2707C296.411 79.0598 296.509 78.8157 296.571 78.5383C296.634 78.261 296.665 77.9641 296.665 77.6477ZM303.005 79.2825V74.4075H304.095V80.7473H303.058L303.005 79.2825ZM303.21 77.9465L303.661 77.9348C303.661 78.3567 303.616 78.7473 303.526 79.1067C303.44 79.4621 303.3 79.7707 303.104 80.0325C302.909 80.2942 302.653 80.4993 302.337 80.6477C302.02 80.7922 301.636 80.8645 301.183 80.8645C300.874 80.8645 300.591 80.8196 300.333 80.7297C300.079 80.6399 299.86 80.5012 299.677 80.3137C299.493 80.1262 299.351 79.8821 299.249 79.5813C299.151 79.2805 299.103 78.9192 299.103 78.4973V74.4075H300.186V78.509C300.186 78.7942 300.218 79.0305 300.28 79.218C300.347 79.4016 300.435 79.5481 300.544 79.6575C300.657 79.7629 300.782 79.8371 300.919 79.8801C301.06 79.9231 301.204 79.9446 301.353 79.9446C301.813 79.9446 302.179 79.8567 302.448 79.6809C302.718 79.5012 302.911 79.261 303.028 78.9602C303.149 78.6555 303.21 78.3176 303.21 77.9465ZM306.925 71.7473V80.7473H305.835V71.7473H306.925ZM312.403 79.6633V76.3996C312.403 76.1496 312.353 75.9328 312.251 75.7493C312.153 75.5618 312.005 75.4172 311.806 75.3157C311.606 75.2141 311.36 75.1633 311.067 75.1633C310.794 75.1633 310.554 75.2102 310.347 75.3039C310.144 75.3977 309.983 75.5207 309.866 75.6731C309.753 75.8254 309.696 75.9895 309.696 76.1653H308.612C308.612 75.9387 308.671 75.7141 308.788 75.4914C308.905 75.2688 309.073 75.0676 309.292 74.8879C309.515 74.7043 309.78 74.5598 310.089 74.4543C310.401 74.345 310.749 74.2903 311.132 74.2903C311.593 74.2903 311.999 74.3684 312.351 74.5246C312.706 74.6809 312.983 74.9172 313.183 75.2336C313.386 75.5461 313.487 75.9387 313.487 76.4114V79.3645C313.487 79.5754 313.505 79.8 313.54 80.0383C313.579 80.2766 313.636 80.4817 313.71 80.6535V80.7473H312.579C312.524 80.6223 312.481 80.4563 312.45 80.2493C312.419 80.0383 312.403 79.843 312.403 79.6633ZM312.591 76.9035L312.603 77.6653H311.507C311.198 77.6653 310.923 77.6907 310.681 77.7414C310.438 77.7883 310.235 77.8606 310.071 77.9582C309.907 78.0559 309.782 78.1789 309.696 78.3274C309.61 78.4719 309.567 78.6418 309.567 78.8371C309.567 79.0364 309.612 79.218 309.702 79.3821C309.792 79.5461 309.927 79.677 310.106 79.7746C310.29 79.8684 310.515 79.9153 310.78 79.9153C311.112 79.9153 311.405 79.845 311.659 79.7043C311.913 79.5637 312.114 79.3918 312.263 79.1887C312.415 78.9856 312.497 78.7883 312.509 78.5969L312.972 79.1184C312.944 79.2825 312.87 79.4641 312.749 79.6633C312.628 79.8625 312.466 80.0539 312.263 80.2375C312.063 80.4172 311.825 80.5676 311.548 80.6887C311.274 80.8059 310.966 80.8645 310.622 80.8645C310.192 80.8645 309.815 80.7805 309.491 80.6125C309.171 80.4446 308.921 80.22 308.741 79.9387C308.565 79.6535 308.478 79.3352 308.478 78.9836C308.478 78.6438 308.544 78.345 308.677 78.0871C308.81 77.8254 309.001 77.6086 309.251 77.4368C309.501 77.261 309.802 77.1282 310.153 77.0383C310.505 76.9485 310.897 76.9035 311.331 76.9035H312.591ZM316.276 75.4035V80.7473H315.192V74.4075H316.247L316.276 75.4035ZM318.257 74.3723L318.251 75.3801C318.161 75.3606 318.075 75.3489 317.993 75.345C317.915 75.3371 317.825 75.3332 317.724 75.3332C317.474 75.3332 317.253 75.3723 317.061 75.4504C316.87 75.5285 316.708 75.6379 316.575 75.7785C316.442 75.9192 316.337 76.0871 316.259 76.2825C316.185 76.4739 316.136 76.6848 316.112 76.9153L315.808 77.091C315.808 76.7082 315.845 76.3489 315.919 76.0129C315.997 75.677 316.116 75.3801 316.276 75.1223C316.436 74.8606 316.64 74.6575 316.886 74.5129C317.136 74.3645 317.433 74.2903 317.776 74.2903C317.854 74.2903 317.944 74.3 318.046 74.3196C318.147 74.3352 318.218 74.3528 318.257 74.3723ZM321.145 80.091L322.909 74.4075H324.069L321.526 81.7258C321.468 81.8821 321.39 82.05 321.292 82.2297C321.198 82.4133 321.077 82.5871 320.929 82.7512C320.78 82.9153 320.601 83.0481 320.39 83.1496C320.183 83.2551 319.935 83.3078 319.645 83.3078C319.56 83.3078 319.45 83.2961 319.317 83.2727C319.185 83.2493 319.091 83.2297 319.036 83.2141L319.03 82.3352C319.061 82.3391 319.11 82.343 319.177 82.3469C319.247 82.3547 319.296 82.3586 319.323 82.3586C319.569 82.3586 319.778 82.3254 319.95 82.259C320.122 82.1965 320.267 82.0891 320.384 81.9368C320.505 81.7883 320.608 81.5832 320.694 81.3215L321.145 80.091ZM319.851 74.4075L321.497 79.3293L321.778 80.4719L320.999 80.8703L318.667 74.4075H319.851Z" fill="black"/>
<path d="M20.2279 76.4993V79.6223C20.1224 79.7785 19.9545 79.9543 19.724 80.1496C19.4935 80.341 19.1752 80.509 18.7689 80.6535C18.3666 80.7942 17.847 80.8645 17.2103 80.8645C16.6908 80.8645 16.2123 80.7746 15.7748 80.595C15.3412 80.4114 14.9642 80.1457 14.6439 79.7981C14.3275 79.4465 14.0814 79.0207 13.9056 78.5207C13.7338 78.0168 13.6478 77.4465 13.6478 76.8098V76.1477C13.6478 75.511 13.722 74.9426 13.8705 74.4426C14.0228 73.9426 14.2455 73.5188 14.5385 73.1711C14.8314 72.8196 15.1908 72.5539 15.6166 72.3743C16.0424 72.1907 16.5306 72.0989 17.0814 72.0989C17.7338 72.0989 18.2787 72.2121 18.7162 72.4387C19.1576 72.6614 19.5013 72.97 19.7474 73.3645C19.9974 73.759 20.1576 74.2082 20.2279 74.7121H19.097C19.0463 74.4035 18.9447 74.1223 18.7924 73.8684C18.6439 73.6145 18.431 73.4114 18.1537 73.259C17.8763 73.1028 17.5189 73.0246 17.0814 73.0246C16.6869 73.0246 16.3451 73.0969 16.056 73.2414C15.767 73.386 15.5287 73.593 15.3412 73.8625C15.1537 74.1321 15.0131 74.4582 14.9193 74.841C14.8295 75.2239 14.7845 75.6555 14.7845 76.136V76.8098C14.7845 77.302 14.8412 77.7414 14.9545 78.1282C15.0717 78.5149 15.2377 78.845 15.4525 79.1184C15.6674 79.3879 15.9232 79.593 16.2201 79.7336C16.5209 79.8743 16.8529 79.9446 17.2162 79.9446C17.6185 79.9446 17.9447 79.9114 18.1947 79.845C18.4447 79.7746 18.64 79.6926 18.7806 79.5989C18.9213 79.5012 19.0287 79.4094 19.1029 79.3235V77.4133H17.1283V76.4993H20.2279ZM23.0228 75.4035V80.7473H21.9388V74.4075H22.9935L23.0228 75.4035ZM25.0033 74.3723L24.9974 75.3801C24.9076 75.3606 24.8217 75.3489 24.7396 75.345C24.6615 75.3371 24.5717 75.3332 24.4701 75.3332C24.2201 75.3332 23.9994 75.3723 23.808 75.4504C23.6166 75.5285 23.4545 75.6379 23.3217 75.7785C23.1888 75.9192 23.0834 76.0871 23.0052 76.2825C22.931 76.4739 22.8822 76.6848 22.8588 76.9153L22.5541 77.091C22.5541 76.7082 22.5912 76.3489 22.6654 76.0129C22.7435 75.677 22.8627 75.3801 23.0228 75.1223C23.183 74.8606 23.3861 74.6575 23.6322 74.5129C23.8822 74.3645 24.1791 74.2903 24.5228 74.2903C24.601 74.2903 24.6908 74.3 24.7924 74.3196C24.8939 74.3352 24.9642 74.3528 25.0033 74.3723ZM29.5092 79.6633V76.3996C29.5092 76.1496 29.4584 75.9328 29.3568 75.7493C29.2592 75.5618 29.1107 75.4172 28.9115 75.3157C28.7123 75.2141 28.4662 75.1633 28.1732 75.1633C27.8998 75.1633 27.6595 75.2102 27.4525 75.3039C27.2494 75.3977 27.0892 75.5207 26.972 75.6731C26.8588 75.8254 26.8021 75.9895 26.8021 76.1653H25.7181C25.7181 75.9387 25.7767 75.7141 25.8939 75.4914C26.0111 75.2688 26.1791 75.0676 26.3978 74.8879C26.6205 74.7043 26.8861 74.5598 27.1947 74.4543C27.5072 74.345 27.8549 74.2903 28.2377 74.2903C28.6986 74.2903 29.1049 74.3684 29.4564 74.5246C29.8119 74.6809 30.0892 74.9172 30.2885 75.2336C30.4916 75.5461 30.5931 75.9387 30.5931 76.4114V79.3645C30.5931 79.5754 30.6107 79.8 30.6459 80.0383C30.6849 80.2766 30.7416 80.4817 30.8158 80.6535V80.7473H29.6849C29.6302 80.6223 29.5873 80.4563 29.556 80.2493C29.5248 80.0383 29.5092 79.843 29.5092 79.6633ZM29.6967 76.9035L29.7084 77.6653H28.6127C28.3041 77.6653 28.0287 77.6907 27.7865 77.7414C27.5443 77.7883 27.3412 77.8606 27.1771 77.9582C27.0131 78.0559 26.8881 78.1789 26.8021 78.3274C26.7162 78.4719 26.6732 78.6418 26.6732 78.8371C26.6732 79.0364 26.7181 79.218 26.808 79.3821C26.8978 79.5461 27.0326 79.677 27.2123 79.7746C27.3959 79.8684 27.6205 79.9153 27.8861 79.9153C28.2181 79.9153 28.5111 79.845 28.765 79.7043C29.0189 79.5637 29.2201 79.3918 29.3685 79.1887C29.5209 78.9856 29.6029 78.7883 29.6146 78.5969L30.0775 79.1184C30.0502 79.2825 29.976 79.4641 29.8549 79.6633C29.7338 79.8625 29.5717 80.0539 29.3685 80.2375C29.1693 80.4172 28.931 80.5676 28.6537 80.6887C28.3802 80.8059 28.0717 80.8645 27.7279 80.8645C27.2982 80.8645 26.9213 80.7805 26.597 80.6125C26.2767 80.4446 26.0267 80.22 25.847 79.9387C25.6713 79.6535 25.5834 79.3352 25.5834 78.9836C25.5834 78.6438 25.6498 78.345 25.7826 78.0871C25.9154 77.8254 26.1068 77.6086 26.3568 77.4368C26.6068 77.261 26.9076 77.1282 27.2592 77.0383C27.6107 76.9485 28.0033 76.9035 28.4369 76.9035H29.6967ZM33.3763 75.6672V80.7473H32.2865V74.4075H33.3177L33.3763 75.6672ZM33.1537 77.3371L32.6498 77.3196C32.6537 76.886 32.7103 76.4856 32.8197 76.1184C32.9291 75.7473 33.0912 75.425 33.306 75.1516C33.5209 74.8782 33.7885 74.6672 34.1088 74.5188C34.4291 74.3664 34.8002 74.2903 35.222 74.2903C35.5189 74.2903 35.7924 74.3332 36.0424 74.4192C36.2924 74.5012 36.5092 74.6321 36.6927 74.8118C36.8763 74.9914 37.0189 75.2219 37.1205 75.5032C37.222 75.7844 37.2728 76.1243 37.2728 76.5227V80.7473H36.1888V76.5754C36.1888 76.2434 36.1322 75.9778 36.0189 75.7785C35.9095 75.5793 35.7533 75.4348 35.5502 75.345C35.347 75.2512 35.1088 75.2043 34.8353 75.2043C34.515 75.2043 34.2474 75.261 34.0326 75.3743C33.8177 75.4875 33.6459 75.6438 33.517 75.843C33.3881 76.0422 33.2943 76.2707 33.2357 76.5285C33.181 76.7825 33.1537 77.052 33.1537 77.3371ZM37.2611 76.7395L36.5345 76.9621C36.5385 76.6145 36.5951 76.2805 36.7045 75.9602C36.8177 75.6399 36.9799 75.3547 37.1908 75.1047C37.4056 74.8547 37.6693 74.6575 37.9818 74.5129C38.2943 74.3645 38.6517 74.2903 39.0541 74.2903C39.3939 74.2903 39.6947 74.3352 39.9564 74.425C40.222 74.5149 40.4447 74.6535 40.6244 74.841C40.808 75.0246 40.9467 75.261 41.0404 75.55C41.1342 75.8391 41.181 76.1828 41.181 76.5813V80.7473H40.0912V76.5696C40.0912 76.2141 40.0345 75.9387 39.9213 75.7434C39.8119 75.5442 39.6556 75.4055 39.4525 75.3274C39.2533 75.2453 39.015 75.2043 38.7377 75.2043C38.4994 75.2043 38.2885 75.2453 38.1049 75.3274C37.9213 75.4094 37.767 75.5227 37.642 75.6672C37.517 75.8078 37.4213 75.97 37.3549 76.1535C37.2924 76.3371 37.2611 76.5325 37.2611 76.7395ZM43.8998 75.6672V80.7473H42.8099V74.4075H43.8412L43.8998 75.6672ZM43.6771 77.3371L43.1732 77.3196C43.1771 76.886 43.2338 76.4856 43.3431 76.1184C43.4525 75.7473 43.6146 75.425 43.8295 75.1516C44.0443 74.8782 44.3119 74.6672 44.6322 74.5188C44.9525 74.3664 45.3236 74.2903 45.7455 74.2903C46.0424 74.2903 46.3158 74.3332 46.5658 74.4192C46.8158 74.5012 47.0326 74.6321 47.2162 74.8118C47.3998 74.9914 47.5424 75.2219 47.6439 75.5032C47.7455 75.7844 47.7963 76.1243 47.7963 76.5227V80.7473H46.7123V76.5754C46.7123 76.2434 46.6556 75.9778 46.5424 75.7785C46.433 75.5793 46.2767 75.4348 46.0736 75.345C45.8705 75.2512 45.6322 75.2043 45.3588 75.2043C45.0385 75.2043 44.7709 75.261 44.556 75.3743C44.3412 75.4875 44.1693 75.6438 44.0404 75.843C43.9115 76.0422 43.8177 76.2707 43.7592 76.5285C43.7045 76.7825 43.6771 77.052 43.6771 77.3371ZM47.7845 76.7395L47.058 76.9621C47.0619 76.6145 47.1185 76.2805 47.2279 75.9602C47.3412 75.6399 47.5033 75.3547 47.7142 75.1047C47.9291 74.8547 48.1927 74.6575 48.5052 74.5129C48.8177 74.3645 49.1752 74.2903 49.5775 74.2903C49.9174 74.2903 50.2181 74.3352 50.4799 74.425C50.7455 74.5149 50.9681 74.6535 51.1478 74.841C51.3314 75.0246 51.4701 75.261 51.5638 75.55C51.6576 75.8391 51.7045 76.1828 51.7045 76.5813V80.7473H50.6146V76.5696C50.6146 76.2141 50.558 75.9387 50.4447 75.7434C50.3353 75.5442 50.1791 75.4055 49.976 75.3274C49.7767 75.2453 49.5385 75.2043 49.2611 75.2043C49.0228 75.2043 48.8119 75.2453 48.6283 75.3274C48.4447 75.4094 48.2904 75.5227 48.1654 75.6672C48.0404 75.8078 47.9447 75.97 47.8783 76.1535C47.8158 76.3371 47.7845 76.5325 47.7845 76.7395ZM55.976 80.8645C55.5345 80.8645 55.1342 80.7903 54.7748 80.6418C54.4193 80.4895 54.1127 80.2766 53.8549 80.0032C53.601 79.7297 53.4056 79.4055 53.2689 79.0305C53.1322 78.6555 53.0638 78.2453 53.0638 77.8V77.5539C53.0638 77.0383 53.14 76.5793 53.2924 76.177C53.4447 75.7707 53.6517 75.427 53.9135 75.1457C54.1752 74.8645 54.472 74.6516 54.8041 74.5071C55.1361 74.3625 55.4799 74.2903 55.8353 74.2903C56.2885 74.2903 56.6791 74.3684 57.0072 74.5246C57.3392 74.6809 57.6107 74.8996 57.8217 75.1809C58.0326 75.4582 58.1888 75.7864 58.2904 76.1653C58.392 76.5403 58.4427 76.9504 58.4427 77.3957V77.8821H53.7084V76.9973H57.3588V76.9153C57.3431 76.634 57.2845 76.3606 57.183 76.095C57.0853 75.8293 56.9291 75.6106 56.7142 75.4387C56.4994 75.2668 56.2064 75.1809 55.8353 75.1809C55.5892 75.1809 55.3627 75.2336 55.1556 75.3391C54.9486 75.4407 54.7709 75.593 54.6224 75.7961C54.474 75.9993 54.3588 76.2473 54.2767 76.5403C54.1947 76.8332 54.1537 77.1711 54.1537 77.5539V77.8C54.1537 78.1008 54.1947 78.384 54.2767 78.6496C54.3627 78.9114 54.4857 79.1418 54.6459 79.341C54.8099 79.5403 55.0072 79.6965 55.2377 79.8098C55.472 79.9231 55.7377 79.9797 56.0345 79.9797C56.4174 79.9797 56.7416 79.9016 57.0072 79.7453C57.2728 79.5891 57.5052 79.3801 57.7045 79.1184L58.3607 79.6399C58.224 79.8469 58.0502 80.0442 57.8392 80.2317C57.6283 80.4192 57.3685 80.5715 57.0599 80.6887C56.7552 80.8059 56.3939 80.8645 55.976 80.8645ZM60.7924 75.4035V80.7473H59.7084V74.4075H60.7631L60.7924 75.4035ZM62.7728 74.3723L62.767 75.3801C62.6771 75.3606 62.5912 75.3489 62.5092 75.345C62.431 75.3371 62.3412 75.3332 62.2396 75.3332C61.9896 75.3332 61.7689 75.3723 61.5775 75.4504C61.3861 75.5285 61.224 75.6379 61.0912 75.7785C60.9584 75.9192 60.8529 76.0871 60.7748 76.2825C60.7006 76.4739 60.6517 76.6848 60.6283 76.9153L60.3236 77.091C60.3236 76.7082 60.3607 76.3489 60.4349 76.0129C60.5131 75.677 60.6322 75.3801 60.7924 75.1223C60.9525 74.8606 61.1556 74.6575 61.4017 74.5129C61.6517 74.3645 61.9486 74.2903 62.2924 74.2903C62.3705 74.2903 62.4603 74.3 62.5619 74.3196C62.6635 74.3352 62.7338 74.3528 62.7728 74.3723Z" fill="black"/>
<path d="M4.13672 198.345H1.85742V197.425H4.13672C4.57812 197.425 4.93555 197.355 5.20898 197.214C5.48242 197.074 5.68164 196.878 5.80664 196.628C5.93555 196.378 6 196.093 6 195.773C6 195.48 5.93555 195.204 5.80664 194.947C5.68164 194.689 5.48242 194.482 5.20898 194.326C4.93555 194.165 4.57812 194.085 4.13672 194.085H2.12109V201.691H0.990234V193.16H4.13672C4.78125 193.16 5.32617 193.271 5.77148 193.494C6.2168 193.716 6.55469 194.025 6.78516 194.419C7.01562 194.81 7.13086 195.257 7.13086 195.761C7.13086 196.308 7.01562 196.775 6.78516 197.162C6.55469 197.548 6.2168 197.843 5.77148 198.046C5.32617 198.245 4.78125 198.345 4.13672 198.345ZM9.48047 196.347V201.691H8.39648V195.351H9.45117L9.48047 196.347ZM11.4609 195.316L11.4551 196.324C11.3652 196.304 11.2793 196.292 11.1973 196.288C11.1191 196.281 11.0293 196.277 10.9277 196.277C10.6777 196.277 10.457 196.316 10.2656 196.394C10.0742 196.472 9.91211 196.581 9.7793 196.722C9.64648 196.863 9.54102 197.031 9.46289 197.226C9.38867 197.417 9.33984 197.628 9.31641 197.859L9.01172 198.035C9.01172 197.652 9.04883 197.292 9.12305 196.956C9.20117 196.62 9.32031 196.324 9.48047 196.066C9.64062 195.804 9.84375 195.601 10.0898 195.456C10.3398 195.308 10.6367 195.234 10.9805 195.234C11.0586 195.234 11.1484 195.244 11.25 195.263C11.3516 195.279 11.4219 195.296 11.4609 195.316ZM12.0586 198.591V198.456C12.0586 197.999 12.125 197.576 12.2578 197.185C12.3906 196.79 12.582 196.449 12.832 196.16C13.082 195.867 13.3848 195.64 13.7402 195.48C14.0957 195.316 14.4941 195.234 14.9355 195.234C15.3809 195.234 15.7812 195.316 16.1367 195.48C16.4961 195.64 16.8008 195.867 17.0508 196.16C17.3047 196.449 17.498 196.79 17.6309 197.185C17.7637 197.576 17.8301 197.999 17.8301 198.456V198.591C17.8301 199.048 17.7637 199.472 17.6309 199.863C17.498 200.253 17.3047 200.595 17.0508 200.888C16.8008 201.177 16.498 201.404 16.1426 201.568C15.791 201.728 15.3926 201.808 14.9473 201.808C14.502 201.808 14.1016 201.728 13.7461 201.568C13.3906 201.404 13.0859 201.177 12.832 200.888C12.582 200.595 12.3906 200.253 12.2578 199.863C12.125 199.472 12.0586 199.048 12.0586 198.591ZM13.1426 198.456V198.591C13.1426 198.908 13.1797 199.206 13.2539 199.488C13.3281 199.765 13.4395 200.011 13.5879 200.226C13.7402 200.441 13.9297 200.611 14.1562 200.736C14.3828 200.857 14.6465 200.917 14.9473 200.917C15.2441 200.917 15.5039 200.857 15.7266 200.736C15.9531 200.611 16.1406 200.441 16.2891 200.226C16.4375 200.011 16.5488 199.765 16.623 199.488C16.7012 199.206 16.7402 198.908 16.7402 198.591V198.456C16.7402 198.144 16.7012 197.849 16.623 197.572C16.5488 197.29 16.4355 197.042 16.2832 196.828C16.1348 196.609 15.9473 196.437 15.7207 196.312C15.498 196.187 15.2363 196.124 14.9355 196.124C14.6387 196.124 14.377 196.187 14.1504 196.312C13.9277 196.437 13.7402 196.609 13.5879 196.828C13.4395 197.042 13.3281 197.29 13.2539 197.572C13.1797 197.849 13.1426 198.144 13.1426 198.456ZM20.2734 196.704V201.691H19.1895V195.351H20.2148L20.2734 196.704ZM20.0156 198.281L19.5645 198.263C19.5684 197.829 19.6328 197.429 19.7578 197.062C19.8828 196.691 20.0586 196.369 20.2852 196.095C20.5117 195.822 20.7812 195.611 21.0938 195.462C21.4102 195.31 21.7598 195.234 22.1426 195.234C22.4551 195.234 22.7363 195.277 22.9863 195.363C23.2363 195.445 23.4492 195.578 23.625 195.761C23.8047 195.945 23.9414 196.183 24.0352 196.476C24.1289 196.765 24.1758 197.119 24.1758 197.537V201.691H23.0859V197.525C23.0859 197.193 23.0371 196.927 22.9395 196.728C22.8418 196.525 22.6992 196.378 22.5117 196.288C22.3242 196.195 22.0938 196.148 21.8203 196.148C21.5508 196.148 21.3047 196.204 21.082 196.318C20.8633 196.431 20.6738 196.587 20.5137 196.787C20.3574 196.986 20.2344 197.214 20.1445 197.472C20.0586 197.726 20.0156 197.995 20.0156 198.281ZM29.7012 200.226V195.351H30.791V201.691H29.7539L29.7012 200.226ZM29.9062 198.89L30.3574 198.878C30.3574 199.3 30.3125 199.691 30.2227 200.05C30.1367 200.406 29.9961 200.714 29.8008 200.976C29.6055 201.238 29.3496 201.443 29.0332 201.591C28.7168 201.736 28.332 201.808 27.8789 201.808C27.5703 201.808 27.2871 201.763 27.0293 201.673C26.7754 201.583 26.5566 201.445 26.373 201.257C26.1895 201.07 26.0469 200.826 25.9453 200.525C25.8477 200.224 25.7988 199.863 25.7988 199.441V195.351H26.8828V199.453C26.8828 199.738 26.9141 199.974 26.9766 200.162C27.043 200.345 27.1309 200.492 27.2402 200.601C27.3535 200.706 27.4785 200.781 27.6152 200.824C27.7559 200.867 27.9004 200.888 28.0488 200.888C28.5098 200.888 28.875 200.8 29.1445 200.624C29.4141 200.445 29.6074 200.204 29.7246 199.904C29.8457 199.599 29.9062 199.261 29.9062 198.89ZM33.5273 196.704V201.691H32.4434V195.351H33.4688L33.5273 196.704ZM33.2695 198.281L32.8184 198.263C32.8223 197.829 32.8867 197.429 33.0117 197.062C33.1367 196.691 33.3125 196.369 33.5391 196.095C33.7656 195.822 34.0352 195.611 34.3477 195.462C34.6641 195.31 35.0137 195.234 35.3965 195.234C35.709 195.234 35.9902 195.277 36.2402 195.363C36.4902 195.445 36.7031 195.578 36.8789 195.761C37.0586 195.945 37.1953 196.183 37.2891 196.476C37.3828 196.765 37.4297 197.119 37.4297 197.537V201.691H36.3398V197.525C36.3398 197.193 36.291 196.927 36.1934 196.728C36.0957 196.525 35.9531 196.378 35.7656 196.288C35.5781 196.195 35.3477 196.148 35.0742 196.148C34.8047 196.148 34.5586 196.204 34.3359 196.318C34.1172 196.431 33.9277 196.587 33.7676 196.787C33.6113 196.986 33.4883 197.214 33.3984 197.472C33.3125 197.726 33.2695 197.995 33.2695 198.281ZM41.6133 200.917C41.8711 200.917 42.1094 200.865 42.3281 200.759C42.5469 200.654 42.7266 200.509 42.8672 200.326C43.0078 200.138 43.0879 199.925 43.1074 199.687H44.1387C44.1191 200.062 43.9922 200.412 43.7578 200.736C43.5273 201.056 43.2246 201.316 42.8496 201.515C42.4746 201.71 42.0625 201.808 41.6133 201.808C41.1367 201.808 40.7207 201.724 40.3652 201.556C40.0137 201.388 39.7207 201.158 39.4863 200.865C39.2559 200.572 39.082 200.236 38.9648 199.857C38.8516 199.474 38.7949 199.07 38.7949 198.644V198.398C38.7949 197.972 38.8516 197.57 38.9648 197.191C39.082 196.808 39.2559 196.47 39.4863 196.177C39.7207 195.884 40.0137 195.654 40.3652 195.486C40.7207 195.318 41.1367 195.234 41.6133 195.234C42.1094 195.234 42.543 195.335 42.9141 195.538C43.2852 195.738 43.5762 196.011 43.7871 196.359C44.002 196.703 44.1191 197.093 44.1387 197.531H43.1074C43.0879 197.269 43.0137 197.033 42.8848 196.822C42.7598 196.611 42.5879 196.443 42.3691 196.318C42.1543 196.189 41.9023 196.124 41.6133 196.124C41.2812 196.124 41.002 196.191 40.7754 196.324C40.5527 196.453 40.375 196.628 40.2422 196.851C40.1133 197.07 40.0195 197.314 39.9609 197.583C39.9062 197.849 39.8789 198.12 39.8789 198.398V198.644C39.8789 198.921 39.9062 199.195 39.9609 199.464C40.0156 199.734 40.1074 199.978 40.2363 200.197C40.3691 200.415 40.5469 200.591 40.7695 200.724C40.9961 200.853 41.2773 200.917 41.6133 200.917ZM46.5352 195.351V201.691H45.4453V195.351H46.5352ZM45.3633 193.669C45.3633 193.494 45.416 193.345 45.5215 193.224C45.6309 193.103 45.791 193.042 46.002 193.042C46.209 193.042 46.3672 193.103 46.4766 193.224C46.5898 193.345 46.6465 193.494 46.6465 193.669C46.6465 193.837 46.5898 193.982 46.4766 194.103C46.3672 194.22 46.209 194.279 46.002 194.279C45.791 194.279 45.6309 194.22 45.5215 194.103C45.416 193.982 45.3633 193.837 45.3633 193.669ZM52.0137 200.607V197.343C52.0137 197.093 51.9629 196.876 51.8613 196.693C51.7637 196.505 51.6152 196.361 51.416 196.259C51.2168 196.158 50.9707 196.107 50.6777 196.107C50.4043 196.107 50.1641 196.154 49.957 196.247C49.7539 196.341 49.5938 196.464 49.4766 196.617C49.3633 196.769 49.3066 196.933 49.3066 197.109H48.2227C48.2227 196.882 48.2812 196.658 48.3984 196.435C48.5156 196.212 48.6836 196.011 48.9023 195.831C49.125 195.648 49.3906 195.503 49.6992 195.398C50.0117 195.288 50.3594 195.234 50.7422 195.234C51.2031 195.234 51.6094 195.312 51.9609 195.468C52.3164 195.624 52.5938 195.861 52.793 196.177C52.9961 196.49 53.0977 196.882 53.0977 197.355V200.308C53.0977 200.519 53.1152 200.744 53.1504 200.982C53.1895 201.22 53.2461 201.425 53.3203 201.597V201.691H52.1895C52.1348 201.566 52.0918 201.4 52.0605 201.193C52.0293 200.982 52.0137 200.787 52.0137 200.607ZM52.2012 197.847L52.2129 198.609H51.1172C50.8086 198.609 50.5332 198.634 50.291 198.685C50.0488 198.732 49.8457 198.804 49.6816 198.902C49.5176 198.999 49.3926 199.122 49.3066 199.271C49.2207 199.415 49.1777 199.585 49.1777 199.781C49.1777 199.98 49.2227 200.162 49.3125 200.326C49.4023 200.49 49.5371 200.62 49.7168 200.718C49.9004 200.812 50.125 200.859 50.3906 200.859C50.7227 200.859 51.0156 200.788 51.2695 200.648C51.5234 200.507 51.7246 200.335 51.873 200.132C52.0254 199.929 52.1074 199.732 52.1191 199.54L52.582 200.062C52.5547 200.226 52.4805 200.408 52.3594 200.607C52.2383 200.806 52.0762 200.997 51.873 201.181C51.6738 201.361 51.4355 201.511 51.1582 201.632C50.8848 201.749 50.5762 201.808 50.2324 201.808C49.8027 201.808 49.4258 201.724 49.1016 201.556C48.7812 201.388 48.5312 201.163 48.3516 200.882C48.1758 200.597 48.0879 200.279 48.0879 199.927C48.0879 199.587 48.1543 199.288 48.2871 199.031C48.4199 198.769 48.6113 198.552 48.8613 198.38C49.1113 198.204 49.4121 198.072 49.7637 197.982C50.1152 197.892 50.5078 197.847 50.9414 197.847H52.2012ZM57.457 195.351V196.183H54.0293V195.351H57.457ZM55.1895 193.81H56.2734V200.12C56.2734 200.335 56.3066 200.497 56.373 200.607C56.4395 200.716 56.5254 200.788 56.6309 200.824C56.7363 200.859 56.8496 200.876 56.9707 200.876C57.0605 200.876 57.1543 200.869 57.252 200.853C57.3535 200.833 57.4297 200.818 57.4805 200.806L57.4863 201.691C57.4004 201.718 57.2871 201.744 57.1465 201.767C57.0098 201.794 56.8438 201.808 56.6484 201.808C56.3828 201.808 56.1387 201.755 55.916 201.65C55.6934 201.544 55.5156 201.369 55.3828 201.122C55.2539 200.872 55.1895 200.537 55.1895 200.115V193.81ZM59.9062 195.351V201.691H58.8164V195.351H59.9062ZM58.7344 193.669C58.7344 193.494 58.7871 193.345 58.8926 193.224C59.002 193.103 59.1621 193.042 59.373 193.042C59.5801 193.042 59.7383 193.103 59.8477 193.224C59.9609 193.345 60.0176 193.494 60.0176 193.669C60.0176 193.837 59.9609 193.982 59.8477 194.103C59.7383 194.22 59.5801 194.279 59.373 194.279C59.1621 194.279 59.002 194.22 58.8926 194.103C58.7871 193.982 58.7344 193.837 58.7344 193.669ZM61.3594 198.591V198.456C61.3594 197.999 61.4258 197.576 61.5586 197.185C61.6914 196.79 61.8828 196.449 62.1328 196.16C62.3828 195.867 62.6855 195.64 63.041 195.48C63.3965 195.316 63.7949 195.234 64.2363 195.234C64.6816 195.234 65.082 195.316 65.4375 195.48C65.7969 195.64 66.1016 195.867 66.3516 196.16C66.6055 196.449 66.7988 196.79 66.9316 197.185C67.0645 197.576 67.1309 197.999 67.1309 198.456V198.591C67.1309 199.048 67.0645 199.472 66.9316 199.863C66.7988 200.253 66.6055 200.595 66.3516 200.888C66.1016 201.177 65.7988 201.404 65.4434 201.568C65.0918 201.728 64.6934 201.808 64.248 201.808C63.8027 201.808 63.4023 201.728 63.0469 201.568C62.6914 201.404 62.3867 201.177 62.1328 200.888C61.8828 200.595 61.6914 200.253 61.5586 199.863C61.4258 199.472 61.3594 199.048 61.3594 198.591ZM62.4434 198.456V198.591C62.4434 198.908 62.4805 199.206 62.5547 199.488C62.6289 199.765 62.7402 200.011 62.8887 200.226C63.041 200.441 63.2305 200.611 63.457 200.736C63.6836 200.857 63.9473 200.917 64.248 200.917C64.5449 200.917 64.8047 200.857 65.0273 200.736C65.2539 200.611 65.4414 200.441 65.5898 200.226C65.7383 200.011 65.8496 199.765 65.9238 199.488C66.002 199.206 66.041 198.908 66.041 198.591V198.456C66.041 198.144 66.002 197.849 65.9238 197.572C65.8496 197.29 65.7363 197.042 65.584 196.828C65.4355 196.609 65.248 196.437 65.0215 196.312C64.7988 196.187 64.5371 196.124 64.2363 196.124C63.9395 196.124 63.6777 196.187 63.4512 196.312C63.2285 196.437 63.041 196.609 62.8887 196.828C62.7402 197.042 62.6289 197.29 62.5547 197.572C62.4805 197.849 62.4434 198.144 62.4434 198.456ZM69.5742 196.704V201.691H68.4902V195.351H69.5156L69.5742 196.704ZM69.3164 198.281L68.8652 198.263C68.8691 197.829 68.9336 197.429 69.0586 197.062C69.1836 196.691 69.3594 196.369 69.5859 196.095C69.8125 195.822 70.082 195.611 70.3945 195.462C70.7109 195.31 71.0605 195.234 71.4434 195.234C71.7559 195.234 72.0371 195.277 72.2871 195.363C72.5371 195.445 72.75 195.578 72.9258 195.761C73.1055 195.945 73.2422 196.183 73.3359 196.476C73.4297 196.765 73.4766 197.119 73.4766 197.537V201.691H72.3867V197.525C72.3867 197.193 72.3379 196.927 72.2402 196.728C72.1426 196.525 72 196.378 71.8125 196.288C71.625 196.195 71.3945 196.148 71.1211 196.148C70.8516 196.148 70.6055 196.204 70.3828 196.318C70.1641 196.431 69.9746 196.587 69.8145 196.787C69.6582 196.986 69.5352 197.214 69.4453 197.472C69.3594 197.726 69.3164 197.995 69.3164 198.281Z" fill="black"/>
<path d="M266.741 193.16V201.691H265.61V193.16H266.741ZM269.718 196.704V201.691H268.634V195.351H269.659L269.718 196.704ZM269.46 198.281L269.009 198.263C269.013 197.829 269.077 197.429 269.202 197.062C269.327 196.691 269.503 196.369 269.729 196.095C269.956 195.822 270.226 195.611 270.538 195.462C270.854 195.31 271.204 195.234 271.587 195.234C271.899 195.234 272.181 195.277 272.431 195.363C272.681 195.445 272.894 195.578 273.069 195.761C273.249 195.945 273.386 196.183 273.479 196.476C273.573 196.765 273.62 197.119 273.62 197.537V201.691H272.53V197.525C272.53 197.193 272.481 196.927 272.384 196.728C272.286 196.525 272.144 196.378 271.956 196.288C271.769 196.195 271.538 196.148 271.265 196.148C270.995 196.148 270.749 196.204 270.526 196.318C270.308 196.431 270.118 196.587 269.958 196.787C269.802 196.986 269.679 197.214 269.589 197.472C269.503 197.726 269.46 197.995 269.46 198.281ZM277.921 195.351V196.183H274.493V195.351H277.921ZM275.653 193.81H276.737V200.12C276.737 200.335 276.77 200.497 276.837 200.607C276.903 200.716 276.989 200.788 277.095 200.824C277.2 200.859 277.313 200.876 277.435 200.876C277.524 200.876 277.618 200.869 277.716 200.853C277.817 200.833 277.894 200.818 277.944 200.806L277.95 201.691C277.864 201.718 277.751 201.744 277.61 201.767C277.474 201.794 277.308 201.808 277.112 201.808C276.847 201.808 276.603 201.755 276.38 201.65C276.157 201.544 275.979 201.369 275.847 201.122C275.718 200.872 275.653 200.537 275.653 200.115V193.81ZM281.823 201.808C281.382 201.808 280.981 201.734 280.622 201.585C280.267 201.433 279.96 201.22 279.702 200.947C279.448 200.673 279.253 200.349 279.116 199.974C278.979 199.599 278.911 199.189 278.911 198.744V198.497C278.911 197.982 278.987 197.523 279.14 197.12C279.292 196.714 279.499 196.37 279.761 196.089C280.022 195.808 280.319 195.595 280.651 195.451C280.983 195.306 281.327 195.234 281.683 195.234C282.136 195.234 282.526 195.312 282.854 195.468C283.186 195.624 283.458 195.843 283.669 196.124C283.88 196.402 284.036 196.73 284.138 197.109C284.239 197.484 284.29 197.894 284.29 198.339V198.826H279.556V197.941H283.206V197.859C283.19 197.578 283.132 197.304 283.03 197.038C282.933 196.773 282.776 196.554 282.561 196.382C282.347 196.21 282.054 196.124 281.683 196.124C281.436 196.124 281.21 196.177 281.003 196.283C280.796 196.384 280.618 196.537 280.47 196.74C280.321 196.943 280.206 197.191 280.124 197.484C280.042 197.777 280.001 198.115 280.001 198.497V198.744C280.001 199.044 280.042 199.328 280.124 199.593C280.21 199.855 280.333 200.085 280.493 200.285C280.657 200.484 280.854 200.64 281.085 200.753C281.319 200.867 281.585 200.923 281.882 200.923C282.265 200.923 282.589 200.845 282.854 200.689C283.12 200.533 283.353 200.324 283.552 200.062L284.208 200.583C284.071 200.79 283.897 200.988 283.686 201.175C283.476 201.363 283.216 201.515 282.907 201.632C282.603 201.749 282.241 201.808 281.823 201.808ZM286.64 196.347V201.691H285.556V195.351H286.61L286.64 196.347ZM288.62 195.316L288.614 196.324C288.524 196.304 288.438 196.292 288.356 196.288C288.278 196.281 288.188 196.277 288.087 196.277C287.837 196.277 287.616 196.316 287.425 196.394C287.233 196.472 287.071 196.581 286.938 196.722C286.806 196.863 286.7 197.031 286.622 197.226C286.548 197.417 286.499 197.628 286.476 197.859L286.171 198.035C286.171 197.652 286.208 197.292 286.282 196.956C286.36 196.62 286.479 196.324 286.64 196.066C286.8 195.804 287.003 195.601 287.249 195.456C287.499 195.308 287.796 195.234 288.14 195.234C288.218 195.234 288.308 195.244 288.409 195.263C288.511 195.279 288.581 195.296 288.62 195.316ZM293.126 200.607V197.343C293.126 197.093 293.075 196.876 292.974 196.693C292.876 196.505 292.728 196.361 292.528 196.259C292.329 196.158 292.083 196.107 291.79 196.107C291.517 196.107 291.276 196.154 291.069 196.247C290.866 196.341 290.706 196.464 290.589 196.617C290.476 196.769 290.419 196.933 290.419 197.109H289.335C289.335 196.882 289.394 196.658 289.511 196.435C289.628 196.212 289.796 196.011 290.015 195.831C290.237 195.648 290.503 195.503 290.811 195.398C291.124 195.288 291.472 195.234 291.854 195.234C292.315 195.234 292.722 195.312 293.073 195.468C293.429 195.624 293.706 195.861 293.905 196.177C294.108 196.49 294.21 196.882 294.21 197.355V200.308C294.21 200.519 294.228 200.744 294.263 200.982C294.302 201.22 294.358 201.425 294.433 201.597V201.691H293.302C293.247 201.566 293.204 201.4 293.173 201.193C293.142 200.982 293.126 200.787 293.126 200.607ZM293.313 197.847L293.325 198.609H292.229C291.921 198.609 291.645 198.634 291.403 198.685C291.161 198.732 290.958 198.804 290.794 198.902C290.63 198.999 290.505 199.122 290.419 199.271C290.333 199.415 290.29 199.585 290.29 199.781C290.29 199.98 290.335 200.162 290.425 200.326C290.515 200.49 290.649 200.62 290.829 200.718C291.013 200.812 291.237 200.859 291.503 200.859C291.835 200.859 292.128 200.788 292.382 200.648C292.636 200.507 292.837 200.335 292.985 200.132C293.138 199.929 293.22 199.732 293.231 199.54L293.694 200.062C293.667 200.226 293.593 200.408 293.472 200.607C293.351 200.806 293.188 200.997 292.985 201.181C292.786 201.361 292.548 201.511 292.27 201.632C291.997 201.749 291.688 201.808 291.345 201.808C290.915 201.808 290.538 201.724 290.214 201.556C289.894 201.388 289.644 201.163 289.464 200.882C289.288 200.597 289.2 200.279 289.2 199.927C289.2 199.587 289.267 199.288 289.399 199.031C289.532 198.769 289.724 198.552 289.974 198.38C290.224 198.204 290.524 198.072 290.876 197.982C291.228 197.892 291.62 197.847 292.054 197.847H293.313ZM298.452 200.917C298.71 200.917 298.948 200.865 299.167 200.759C299.386 200.654 299.565 200.509 299.706 200.326C299.847 200.138 299.927 199.925 299.946 199.687H300.978C300.958 200.062 300.831 200.412 300.597 200.736C300.366 201.056 300.063 201.316 299.688 201.515C299.313 201.71 298.901 201.808 298.452 201.808C297.976 201.808 297.56 201.724 297.204 201.556C296.853 201.388 296.56 201.158 296.325 200.865C296.095 200.572 295.921 200.236 295.804 199.857C295.69 199.474 295.634 199.07 295.634 198.644V198.398C295.634 197.972 295.69 197.57 295.804 197.191C295.921 196.808 296.095 196.47 296.325 196.177C296.56 195.884 296.853 195.654 297.204 195.486C297.56 195.318 297.976 195.234 298.452 195.234C298.948 195.234 299.382 195.335 299.753 195.538C300.124 195.738 300.415 196.011 300.626 196.359C300.841 196.703 300.958 197.093 300.978 197.531H299.946C299.927 197.269 299.853 197.033 299.724 196.822C299.599 196.611 299.427 196.443 299.208 196.318C298.993 196.189 298.741 196.124 298.452 196.124C298.12 196.124 297.841 196.191 297.614 196.324C297.392 196.453 297.214 196.628 297.081 196.851C296.952 197.07 296.858 197.314 296.8 197.583C296.745 197.849 296.718 198.12 296.718 198.398V198.644C296.718 198.921 296.745 199.195 296.8 199.464C296.854 199.734 296.946 199.978 297.075 200.197C297.208 200.415 297.386 200.591 297.608 200.724C297.835 200.853 298.116 200.917 298.452 200.917ZM304.851 195.351V196.183H301.423V195.351H304.851ZM302.583 193.81H303.667V200.12C303.667 200.335 303.7 200.497 303.767 200.607C303.833 200.716 303.919 200.788 304.024 200.824C304.13 200.859 304.243 200.876 304.364 200.876C304.454 200.876 304.548 200.869 304.645 200.853C304.747 200.833 304.823 200.818 304.874 200.806L304.88 201.691C304.794 201.718 304.681 201.744 304.54 201.767C304.403 201.794 304.237 201.808 304.042 201.808C303.776 201.808 303.532 201.755 303.31 201.65C303.087 201.544 302.909 201.369 302.776 201.122C302.647 200.872 302.583 200.537 302.583 200.115V193.81ZM307.3 195.351V201.691H306.21V195.351H307.3ZM306.128 193.669C306.128 193.494 306.181 193.345 306.286 193.224C306.395 193.103 306.556 193.042 306.767 193.042C306.974 193.042 307.132 193.103 307.241 193.224C307.354 193.345 307.411 193.494 307.411 193.669C307.411 193.837 307.354 193.982 307.241 194.103C307.132 194.22 306.974 194.279 306.767 194.279C306.556 194.279 306.395 194.22 306.286 194.103C306.181 193.982 306.128 193.837 306.128 193.669ZM308.753 198.591V198.456C308.753 197.999 308.819 197.576 308.952 197.185C309.085 196.79 309.276 196.449 309.526 196.16C309.776 195.867 310.079 195.64 310.435 195.48C310.79 195.316 311.188 195.234 311.63 195.234C312.075 195.234 312.476 195.316 312.831 195.48C313.19 195.64 313.495 195.867 313.745 196.16C313.999 196.449 314.192 196.79 314.325 197.185C314.458 197.576 314.524 197.999 314.524 198.456V198.591C314.524 199.048 314.458 199.472 314.325 199.863C314.192 200.253 313.999 200.595 313.745 200.888C313.495 201.177 313.192 201.404 312.837 201.568C312.485 201.728 312.087 201.808 311.642 201.808C311.196 201.808 310.796 201.728 310.44 201.568C310.085 201.404 309.78 201.177 309.526 200.888C309.276 200.595 309.085 200.253 308.952 199.863C308.819 199.472 308.753 199.048 308.753 198.591ZM309.837 198.456V198.591C309.837 198.908 309.874 199.206 309.948 199.488C310.022 199.765 310.134 200.011 310.282 200.226C310.435 200.441 310.624 200.611 310.851 200.736C311.077 200.857 311.341 200.917 311.642 200.917C311.938 200.917 312.198 200.857 312.421 200.736C312.647 200.611 312.835 200.441 312.983 200.226C313.132 200.011 313.243 199.765 313.317 199.488C313.395 199.206 313.435 198.908 313.435 198.591V198.456C313.435 198.144 313.395 197.849 313.317 197.572C313.243 197.29 313.13 197.042 312.978 196.828C312.829 196.609 312.642 196.437 312.415 196.312C312.192 196.187 311.931 196.124 311.63 196.124C311.333 196.124 311.071 196.187 310.845 196.312C310.622 196.437 310.435 196.609 310.282 196.828C310.134 197.042 310.022 197.29 309.948 197.572C309.874 197.849 309.837 198.144 309.837 198.456ZM316.968 196.704V201.691H315.884V195.351H316.909L316.968 196.704ZM316.71 198.281L316.259 198.263C316.263 197.829 316.327 197.429 316.452 197.062C316.577 196.691 316.753 196.369 316.979 196.095C317.206 195.822 317.476 195.611 317.788 195.462C318.104 195.31 318.454 195.234 318.837 195.234C319.149 195.234 319.431 195.277 319.681 195.363C319.931 195.445 320.144 195.578 320.319 195.761C320.499 195.945 320.636 196.183 320.729 196.476C320.823 196.765 320.87 197.119 320.87 197.537V201.691H319.78V197.525C319.78 197.193 319.731 196.927 319.634 196.728C319.536 196.525 319.394 196.378 319.206 196.288C319.019 196.195 318.788 196.148 318.515 196.148C318.245 196.148 317.999 196.204 317.776 196.318C317.558 196.431 317.368 196.587 317.208 196.787C317.052 196.986 316.929 197.214 316.839 197.472C316.753 197.726 316.71 197.995 316.71 198.281Z" fill="black"/>
<path d="M72.6963 110.854L170.701 39.6495L268.705 110.854L231.271 226.065H110.131L72.6963 110.854Z" stroke="#D9D9D9"/>
<path d="M81.8251 113.82L170.701 49.2482L259.576 113.82L225.629 218.299H115.773L81.8251 113.82Z" stroke="#D9D9D9"/>
<path d="M92.7798 117.379L170.701 60.7666L248.621 117.379L218.858 208.981H122.543L92.7798 117.379Z" stroke="#D9D9D9"/>
<path d="M101.909 120.346L170.701 70.3653L239.492 120.346L213.216 201.215H128.185L101.909 120.346Z" stroke="#D9D9D9"/>
<path d="M112.863 123.905L170.701 81.8838L228.538 123.905L206.446 191.897H134.955L112.863 123.905Z" stroke="#D9D9D9"/>
<path d="M121.992 126.871L170.701 91.4825L219.409 126.871L200.804 184.131H140.597L121.992 126.871Z" stroke="#D9D9D9"/>
<path d="M131.121 129.837L170.701 101.081L210.28 129.837L195.162 176.366H146.239L131.121 129.837Z" stroke="#D9D9D9"/>
<path d="M142.076 133.397L170.701 112.6L199.325 133.397L188.392 167.047H153.01L142.076 133.397Z" stroke="#D9D9D9"/>
<path d="M151.317 135.929L170.813 121.764L190.308 135.929L182.862 158.848H158.764L151.317 135.929Z" stroke="#D9D9D9"/>
<path d="M170.596 39.6863V133.977" stroke="#D9D9D9"/>
<path d="M162.159 139.922L170.701 133.717L179.242 139.922L175.979 149.963H165.422L162.159 139.922Z" stroke="#D9D9D9"/>
<path d="M231.552 226.362L175.359 149.216" stroke="#D9D9D9"/>
<path d="M165.834 149.216L110.593 225.41" stroke="#D9D9D9"/>
<path d="M73.5687 110.747L162.857 140.062" stroke="#D9D9D9"/>
<path d="M162.159 139.922L170.701 133.717L179.242 139.922L175.979 149.963H165.422L162.159 139.922Z" fill="#75A1E3" stroke="#83D7F1"/>
</svg>
