<svg width="32" height="34" viewBox="0 0 32 34" fill="none" xmlns="http://www.w3.org/2000/svg">
<path fill-rule="evenodd" clip-rule="evenodd" d="M6.53516 11.1905C13.6229 12.1907 19.1667 9.60735 23.0272 3.47504C23.0466 3.4443 23.0643 3.41278 23.0804 3.38062C24.5661 5.05242 25.4685 7.25414 25.4685 9.66664V13.1333C25.4685 16.6369 23.5473 19.7867 20.5691 21.4276C20.1811 21.158 19.7097 21 19.2014 21C17.8759 21 16.8014 22.0745 16.8014 23.4C16.8014 24.7255 17.8759 25.8 19.2014 25.8C19.8727 25.8 20.4796 25.5244 20.9152 25.0802C20.2662 27.1189 18.3117 28.6 16.0014 28.6C13.1633 28.6 10.8621 26.3648 10.8586 23.6063L11.6174 21.5257C8.53521 19.9146 6.53516 16.7082 6.53516 13.1333V11.1905H6.53516ZM6.55273 9.06576C6.86267 4.11742 10.9742 0.199951 16.0006 0.199951C18.1192 0.199951 20.0751 0.895847 21.6525 2.07152C21.604 2.12137 21.5595 2.17785 21.5199 2.24077C18.0454 7.7598 13.1346 10.0258 6.64578 9.07409C6.61457 9.06951 6.58353 9.06676 6.55273 9.06576H6.55273ZM8.88179 24.6535C9.40443 28.0197 12.3927 30.6 16.0008 30.6C19.6096 30.6 22.5984 28.0186 23.1201 24.6514L26.9563 25.425C28.4802 25.7223 29.6944 26.8745 30.071 28.3808L31.1773 32.8059C31.3035 33.3108 30.9216 33.8 30.4012 33.8H1.60118C1.08072 33.8 0.698832 33.3108 0.825061 32.8059L1.92991 28.3865C2.30739 26.8766 3.52648 25.7227 5.04718 25.4302L8.88179 24.6535V24.6535Z" fill="#5CB3CF"/>
<path opacity="0.3" fill-rule="evenodd" clip-rule="evenodd" d="M19.2004 24.2C19.6422 24.2 20.0004 23.8418 20.0004 23.4C20.0004 22.9581 19.6422 22.6 19.2004 22.6C18.7586 22.6 18.4004 22.9581 18.4004 23.4C18.4004 23.8418 18.7586 24.2 19.2004 24.2Z" fill="#1565D8"/>
<path opacity="0.3" fill-rule="evenodd" clip-rule="evenodd" d="M26.9708 8.19995H27.2001C28.5256 8.19995 29.6001 9.27447 29.6001 10.6V13.8C29.6001 15.1254 28.5256 16.2 27.2001 16.2H26.6348C26.9177 15.2182 27.0671 14.1877 27.0671 13.1333V9.66662C27.0671 9.16939 27.0343 8.67982 26.9708 8.19995Z" fill="#1565D8"/>
<path opacity="0.3" fill-rule="evenodd" clip-rule="evenodd" d="M5.36649 16.2H4.80039C3.47491 16.2 2.40039 15.1254 2.40039 13.8V10.6C2.40039 9.27447 3.47491 8.19995 4.80039 8.19995H5.03045C4.96691 8.67982 4.93412 9.16939 4.93412 9.66662V13.1333C4.93412 14.1877 5.08356 15.2182 5.36649 16.2V16.2Z" fill="#1565D8"/>
</svg>
