<svg id="Layer_1" data-name="Layer 1" xmlns="http://www.w3.org/2000/svg" xmlns:xlink="http://www.w3.org/1999/xlink" viewBox="0 0 1440 740"><defs><style>.cls-1{fill:none;}.cls-2{fill:#f5f5f5;}.cls-3{fill:#5cb3cf;}.cls-4{fill:#fff;}.cls-4,.cls-6,.cls-7{fill-rule:evenodd;}.cls-5{clip-path:url(#clip-path);}.cls-6,.cls-7{isolation:isolate;opacity:0.15;}.cls-6{fill:url(#linear-gradient);}.cls-7{fill:url(#linear-gradient-2);}</style><clipPath id="clip-path"><path class="cls-1" d="M1440,0H0V740H1440Z"/></clipPath><linearGradient id="linear-gradient" x1="455.99" y1="761" x2="-726.85" y2="761" gradientTransform="matrix(1, 0, 0, -1, 0, 742)" gradientUnits="userSpaceOnUse"><stop offset="0" stop-color="#fff" stop-opacity="0.01"/><stop offset="1" stop-color="#fff"/></linearGradient><linearGradient id="linear-gradient-2" x1="2116.99" y1="-105" x2="934.15" y2="-105" gradientTransform="matrix(1, 0, 0, -1, 0, 742)" gradientUnits="userSpaceOnUse"><stop offset="0" stop-color="#fff"/><stop offset="1" stop-color="#fff" stop-opacity="0.01"/></linearGradient></defs><rect class="cls-2" width="1440" height="740"/><path class="cls-3" d="M1440,0H0V740H1440Z"/><path class="cls-4" d="M1440,740H0V565q360,79.9,720,80t720-80Z"/><g class="cls-5"><path class="cls-6" d="M-137,574c327.5,0,593-265.5,593-593S190.5-612-137-612-730-346.5-730-19-464.5,574-137,574Zm0-200c-217.1,0-393-176-393-393s175.9-393,393-393S256-236,256-19,80,374-137,374Z"/><path class="cls-7" d="M1524,1440c327.5,0,593-265.5,593-593s-265.5-593-593-593S931,519.5,931,847,1196.5,1440,1524,1440Zm0-200c-217.1,0-393-175.9-393-393s175.9-393,393-393,393,175.9,393,393S1741,1240,1524,1240Z"/></g></svg>