<svg width="34" height="34" viewBox="0 0 34 34" fill="none" xmlns="http://www.w3.org/2000/svg">
<rect width="34" height="34" fill="#F5F5F5"/>
<path fill-rule="evenodd" clip-rule="evenodd" d="M33.934 12.7827V27.8336C33.934 30.9263 31.4268 33.4336 28.334 33.4336H5.93398C2.84119 33.4336 0.333984 30.9263 0.333984 27.8336V12.7827C0.333984 12.0015 0.717094 11.27 1.35947 10.8229L5.44916 7.9768C5.81182 7.72443 6.3104 7.81382 6.56278 8.17647C6.81516 8.53912 6.72576 9.03771 6.36311 9.29008L2.27342 12.1362C2.06379 12.2821 1.93808 12.518 1.93408 12.7703C2.18428 12.6819 2.45351 12.6338 2.73398 12.6338C3.16198 12.6338 3.58219 12.7482 3.95108 12.9653L17.134 20.722L30.3169 12.9653C30.9522 12.5914 31.6892 12.5434 32.3339 12.7709C32.3301 12.5184 32.2044 12.2822 31.9946 12.1362L28.0219 9.37157C27.6593 9.11919 27.5699 8.6206 27.8223 8.25795C28.0747 7.8953 28.5732 7.80591 28.9359 8.05829L32.9085 10.8229C33.5509 11.27 33.934 12.0015 33.934 12.7827Z" fill="#5CB3CF"/>
<path fill-rule="evenodd" clip-rule="evenodd" d="M5.33398 12.3334V4.33337C5.33398 2.12423 7.12485 0.333374 9.33398 0.333374H25.334C27.5431 0.333374 29.334 2.12423 29.334 4.33337V12.3334L17.334 19.5334L5.33398 12.3334ZM12.5344 8.3334H22.1344C22.5762 8.3334 22.9344 7.97523 22.9344 7.5334C22.9344 7.09157 22.5762 6.7334 22.1344 6.7334H12.5344C12.0925 6.7334 11.7344 7.09157 11.7344 7.5334C11.7344 7.97523 12.0925 8.3334 12.5344 8.3334ZM22.1344 13.1333H12.5344C12.0925 13.1333 11.7344 12.7752 11.7344 12.3333C11.7344 11.8915 12.0925 11.5333 12.5344 11.5333H22.1344C22.5762 11.5333 22.9344 11.8915 22.9344 12.3333C22.9344 12.7752 22.5762 13.1333 22.1344 13.1333Z" fill="#B8D0F3"/>
</svg>
